# xmcd
#
# Track frame offsets:
#	150
#	19030
#	33035
#	47817
#	64410
#	81155
#	100402
#	114797
#	127960
#	148305
#	168830
#	185967
#	199160
#	210822
#	221640
#
# Disc length: 3086 seconds
#
# Revision: 0
# Processed by: cddbd v1.4PL0 Copyright (c) Steve Scherf et al.
# Submitted via: audiograbber 1.80.04
#
DISCID=d40c0c0f
DTITLE=Massimo Ranieri - Da Bambino a fantastico
DYEAR=1900
DGENRE=
TTITLE0=Perdere L'Amore
TTITLE1=Notte chiara
TTITLE2=Rose rosse
TTITLE3=Erba di Casa Mia
TTITLE4='O surdato 'nnammurato
TTITLE5=Reginella
TTITLE6=Se bruciasse la città
TTITLE7=Vent'anni
TTITLE8=Via del conservatorio
TTITLE9=Aranguez mon Amour
TTITLE10=Per una donna
TTITLE11=Da bambino
TTITLE12=Pietà per chi ti Ama
TTITLE13=L'amore e' una cosa meravigliosa
TTITLE14=La prima volta
EXTD=
EXTT0=
EXTT1=
EXTT2=
EXTT3=
EXTT4=
EXTT5=
EXTT6=
EXTT7=
EXTT8=
EXTT9=
EXTT10=
EXTT11=
EXTT12=
EXTT13=
EXTT14=
PLAYORDER=
